STARTFONT 2.1
COMMENT Recovered from arc.ast's:NONM AST (MIT CADR AST source recovered from ARC!!!)
FONT MIT-CADR-NONM
SIZE 34 72 72
FONTBOUNDINGBOX 27 34 0 -9
STARTPROPERTIES 2
FONT_ASCENT 25
FONT_DESCENT 9
ENDPROPERTIES
CHARS 97
STARTCHAR C0000
ENCODING -1 0
SWIDTH 294 0
DWIDTH 10 0
BBX 10 34 0 -9
BITMAP
0000
0000
0000
0000
C300
E780
3CC0
1840
3CC0
E780
C300
E780
3CC0
1840
3CC0
E780
C300
E780
3CC0
1840
3CC0
E780
C300
E780
3CC0
1840
3CC0
E780
C300
E780
3CC0
1840
3CC0
E780
ENDCHAR
STARTCHAR C0002
ENCODING -1 2
SWIDTH 588 0
DWIDTH 20 0
BBX 18 34 1 -9
BITMAP
000000
000000
000000
000000
000000
000000
000000
000000
00C000
07F800
1FFE00
3FFF00
3FFF00
7FFF80
7FFF80
7FFF80
FFFFC0
7FFF80
7FFF80
7FFF80
7FFF00
3FFF00
1FFE00
07F800
00C000
000000
000000
000000
000000
000000
000000
000000
000000
000000
ENDCHAR
STARTCHAR C0018
ENCODING -1 24
SWIDTH 794 0
DWIDTH 27 0
BBX 27 34 0 -9
BITMAP
00000000
00000000
00000000
00000000
00000000
00000000
00000000
00000000
00000000
00000000
00000000
00000000
00000000
00000000
00000000
00000000
00000000
00000000
00000000
00000000
00000000
00000000
00000000
00000000
00000000
00000000
00000000
00000000
00000000
00000000
00000000
00000000
FFFFFFE0
FFFFFFE0
ENDCHAR
STARTCHAR C0020
ENCODING -1 32
SWIDTH 294 0
DWIDTH 10 0
BBX 1 34 0 -9
BITMAP
00
00
00
00
00
00
00
00
00
00
00
00
00
00
00
00
00
00
00
00
00
00
00
00
00
00
00
00
00
00
00
00
00
00
ENDCHAR
STARTCHAR C0021
ENCODING -1 33
SWIDTH 265 0
DWIDTH 9 0
BBX 3 34 3 -9
BITMAP
00
00
00
00
00
00
E0
E0
E0
E0
E0
E0
E0
E0
E0
E0
E0
E0
E0
00
00
00
E0
E0
E0
00
00
00
00
00
00
00
00
00
ENDCHAR
STARTCHAR C0022
ENCODING -1 34
SWIDTH 441 0
DWIDTH 15 0
BBX 9 34 3 -9
BITMAP
0000
0000
0000
0000
0000
0000
E380
E380
E380
E380
E380
E380
E380
E380
E380
0000
0000
0000
0000
0000
0000
0000
0000
0000
0000
0000
0000
0000
0000
0000
0000
0000
0000
0000
ENDCHAR
STARTCHAR C0023
ENCODING -1 35
SWIDTH 559 0
DWIDTH 19 0
BBX 17 34 1 -9
BITMAP
000000
000000
000000
000000
000000
000000
038E00
038E00
038E00
071C00
071C00
071C00
7FFF80
7FFF80
0E3800
0E3800
0E3800
FFFF00
FFFF00
1C7000
1C7000
1C7000
38E000
38E000
38E000
000000
000000
000000
000000
000000
000000
000000
000000
000000
ENDCHAR
STARTCHAR C0024
ENCODING -1 36
SWIDTH 559 0
DWIDTH 19 0
BBX 16 34 1 -9
BITMAP
0000
0000
0000
0000
01C0
01C0
07F0
1FFC
3DDE
79CF
71C7
71C7
79C0
3FC0
1FF0
07FC
01FE
01CF
E1C7
E1C7
E1C7
F1CF
79DE
3FFC
0FF0
01C0
01C0
0000
0000
0000
0000
0000
0000
0000
ENDCHAR
STARTCHAR C0025
ENCODING -1 37
SWIDTH 647 0
DWIDTH 22 0
BBX 18 34 2 -9
BITMAP
000000
000000
000000
000000
000000
000000
3C0E00
7E0E00
E71C00
C31C00
E73800
7E3800
3C7000
007000
00E000
00E000
01C000
01C000
038F00
039F80
0739C0
0730C0
0E39C0
0E1F80
1C0F00
1C0000
000000
000000
000000
000000
000000
000000
000000
000000
ENDCHAR
STARTCHAR C0026
ENCODING -1 38
SWIDTH 647 0
DWIDTH 22 0
BBX 18 34 2 -9
BITMAP
000000
000000
000000
000000
000000
000000
078000
1FE000
3CF000
387000
387000
1CE000
0FC000
078000
0F8000
1FC080
39E1C0
70F3C0
E07F80
E03F00
E03E00
F07F00
78F780
3FE3C0
0F8180
000000
000000
000000
000000
000000
000000
000000
000000
000000
ENDCHAR
STARTCHAR C0027
ENCODING -1 39
SWIDTH 265 0
DWIDTH 9 0
BBX 3 34 3 -9
BITMAP
00
00
00
00
00
00
E0
E0
E0
E0
E0
E0
E0
E0
E0
00
00
00
00
00
00
00
00
00
00
00
00
00
00
00
00
00
00
00
ENDCHAR
STARTCHAR C0028
ENCODING -1 40
SWIDTH 353 0
DWIDTH 12 0
BBX 8 34 2 -9
BITMAP
00
00
00
00
07
0E
1C
38
38
70
70
E0
E0
E0
E0
E0
E0
E0
E0
E0
E0
70
70
38
38
1C
0E
07
00
00
00
00
00
00
ENDCHAR
STARTCHAR C0029
ENCODING -1 41
SWIDTH 353 0
DWIDTH 12 0
BBX 8 34 2 -9
BITMAP
00
00
00
00
E0
70
38
1C
1C
0E
0E
07
07
07
07
07
07
07
07
07
07
0E
0E
1C
1C
38
70
E0
00
00
00
00
00
00
ENDCHAR
STARTCHAR C002A
ENCODING -1 42
SWIDTH 412 0
DWIDTH 14 0
BBX 10 34 2 -9
BITMAP
0000
0000
0000
0000
0000
0000
0C00
CCC0
EDC0
7F80
3F00
1E00
3F00
7380
E1C0
C0C0
0000
0000
0000
0000
0000
0000
0000
0000
0000
0000
0000
0000
0000
0000
0000
0000
0000
0000
ENDCHAR
STARTCHAR C002B
ENCODING -1 43
SWIDTH 500 0
DWIDTH 17 0
BBX 13 34 2 -9
BITMAP
0000
0000
0000
0000
0000
0000
0000
0000
0000
0000
0700
0700
0700
0700
0700
FFF8
FFF8
FFF8
0700
0700
0700
0700
0700
0000
0000
0000
0000
0000
0000
0000
0000
0000
0000
0000
ENDCHAR
STARTCHAR C002C
ENCODING -1 44
SWIDTH 235 0
DWIDTH 8 0
BBX 4 34 2 -9
BITMAP
00
00
00
00
00
00
00
00
00
00
00
00
00
00
00
00
00
00
00
00
00
60
F0
F0
70
30
30
60
C0
00
00
00
00
00
ENDCHAR
STARTCHAR C002D
ENCODING -1 45
SWIDTH 412 0
DWIDTH 14 0
BBX 10 34 2 -9
BITMAP
0000
0000
0000
0000
0000
0000
0000
0000
0000
0000
0000
0000
0000
0000
0000
FFC0
FFC0
FFC0
0000
0000
0000
0000
0000
0000
0000
0000
0000
0000
0000
0000
0000
0000
0000
0000
ENDCHAR
STARTCHAR C002E
ENCODING -1 46
SWIDTH 235 0
DWIDTH 8 0
BBX 4 34 2 -9
BITMAP
00
00
00
00
00
00
00
00
00
00
00
00
00
00
00
00
00
00
00
00
00
60
F0
F0
60
00
00
00
00
00
00
00
00
00
ENDCHAR
STARTCHAR C002F
ENCODING -1 47
SWIDTH 441 0
DWIDTH 15 0
BBX 11 34 2 -9
BITMAP
0000
0000
0000
0000
0000
00E0
00E0
01C0
01C0
01C0
0380
0380
0700
0700
0700
0E00
0E00
1C00
1C00
1C00
3800
3800
7000
7000
7000
E000
E000
0000
0000
0000
0000
0000
0000
0000
ENDCHAR
STARTCHAR C0030
ENCODING -1 48
SWIDTH 559 0
DWIDTH 19 0
BBX 15 34 2 -9
BITMAP
0000
0000
0000
0000
0000
0000
07C0
1FF0
3C78
783C
701C
E00E
E00E
E00E
E00E
E00E
E00E
E00E
E00E
E00E
701C
783C
3C78
1FF0
07C0
0000
0000
0000
0000
0000
0000
0000
0000
0000
ENDCHAR
STARTCHAR C0031
ENCODING -1 49
SWIDTH 559 0
DWIDTH 19 0
BBX 8 34 4 -9
BITMAP
00
00
00
00
00
00
07
0F
1F
FF
FF
07
07
07
07
07
07
07
07
07
07
07
07
07
07
00
00
00
00
00
00
00
00
00
ENDCHAR
STARTCHAR C0032
ENCODING -1 50
SWIDTH 559 0
DWIDTH 19 0
BBX 15 34 2 -9
BITMAP
0000
0000
0000
0000
0000
0000
07E0
1FF8
3C3C
381E
700E
700E
000E
001E
003C
00F8
01E0
0780
1F00
3C00
7800
7000
F000
FFFE
FFFE
0000
0000
0000
0000
0000
0000
0000
0000
0000
ENDCHAR
STARTCHAR C0033
ENCODING -1 51
SWIDTH 559 0
DWIDTH 19 0
BBX 15 34 2 -9
BITMAP
0000
0000
0000
0000
0000
0000
07E0
1FF0
3C78
381C
701C
701C
003C
0078
03F0
03F8
003C
E01C
E00E
E00E
E00E
701C
783C
3FF8
0FE0
0000
0000
0000
0000
0000
0000
0000
0000
0000
ENDCHAR
STARTCHAR C0034
ENCODING -1 52
SWIDTH 559 0
DWIDTH 19 0
BBX 16 34 2 -9
BITMAP
0000
0000
0000
0000
0000
0000
00F8
01F8
01B8
03B8
0738
0738
0E38
1C38
1C38
3838
7038
7038
E038
FFFF
FFFF
0038
0038
0038
0038
0000
0000
0000
0000
0000
0000
0000
0000
0000
ENDCHAR
STARTCHAR C0035
ENCODING -1 53
SWIDTH 559 0
DWIDTH 19 0
BBX 16 34 2 -9
BITMAP
0000
0000
0000
0000
0000
0000
1FFE
1FFE
1C00
3800
3800
3800
73F0
7FFC
7E1E
700E
0007
0007
E007
E007
E007
700E
781E
3FFC
0FF0
0000
0000
0000
0000
0000
0000
0000
0000
0000
ENDCHAR
STARTCHAR C0036
ENCODING -1 54
SWIDTH 559 0
DWIDTH 19 0
BBX 15 34 2 -9
BITMAP
0000
0000
0000
0000
0000
0000
07E0
1FF8
3C3C
781C
700C
E000
E3E0
EFF8
FC3C
F81C
F00E
E00E
E00E
E00E
E00E
701C
783C
3FF8
0FE0
0000
0000
0000
0000
0000
0000
0000
0000
0000
ENDCHAR
STARTCHAR C0037
ENCODING -1 55
SWIDTH 559 0
DWIDTH 19 0
BBX 14 34 3 -9
BITMAP
0000
0000
0000
0000
0000
0000
FFFC
FFFC
001C
0038
0070
00E0
01C0
0380
0700
0700
0E00
0E00
1E00
1C00
1C00
3C00
3C00
3C00
3C00
0000
0000
0000
0000
0000
0000
0000
0000
0000
ENDCHAR
STARTCHAR C0038
ENCODING -1 56
SWIDTH 559 0
DWIDTH 19 0
BBX 15 34 2 -9
BITMAP
0000
0000
0000
0000
0000
0000
07C0
1FF0
3838
701C
701C
701C
3838
1FF0
0FE0
3C78
701C
E00E
E00E
E00E
E00E
F01E
783C
3FF8
0FE0
0000
0000
0000
0000
0000
0000
0000
0000
0000
ENDCHAR
STARTCHAR C0039
ENCODING -1 57
SWIDTH 559 0
DWIDTH 19 0
BBX 15 34 2 -9
BITMAP
0000
0000
0000
0000
0000
0000
0FE0
3FF8
783C
701C
E01E
E00E
E00E
E00E
E00E
701E
783E
3FFE
0FCE
000E
E00E
F01C
783C
3FF8
1FE0
0000
0000
0000
0000
0000
0000
0000
0000
0000
ENDCHAR
STARTCHAR C003A
ENCODING -1 58
SWIDTH 294 0
DWIDTH 10 0
BBX 4 34 3 -9
BITMAP
00
00
00
00
00
00
00
00
00
00
00
00
00
60
F0
F0
60
00
00
00
00
60
F0
F0
60
00
00
00
00
00
00
00
00
00
ENDCHAR
STARTCHAR C003B
ENCODING -1 59
SWIDTH 294 0
DWIDTH 10 0
BBX 4 34 3 -9
BITMAP
00
00
00
00
00
00
00
00
00
00
00
00
00
60
F0
F0
60
00
00
00
00
60
F0
F0
70
30
30
60
C0
00
00
00
00
00
ENDCHAR
STARTCHAR C003C
ENCODING -1 60
SWIDTH 500 0
DWIDTH 17 0
BBX 13 34 2 -9
BITMAP
0000
0000
0000
0000
0000
0000
0078
00F0
01E0
03C0
0780
0F00
1E00
3C00
7800
F000
7800
3C00
1E00
0F00
0780
03C0
01E0
00F0
0078
0000
0000
0000
0000
0000
0000
0000
0000
0000
ENDCHAR
STARTCHAR C003D
ENCODING -1 61
SWIDTH 471 0
DWIDTH 16 0
BBX 12 34 2 -9
BITMAP
0000
0000
0000
0000
0000
0000
0000
0000
0000
0000
0000
FFF0
FFF0
FFF0
0000
0000
0000
FFF0
FFF0
FFF0
0000
0000
0000
0000
0000
0000
0000
0000
0000
0000
0000
0000
0000
0000
ENDCHAR
STARTCHAR C003E
ENCODING -1 62
SWIDTH 500 0
DWIDTH 17 0
BBX 13 34 2 -9
BITMAP
0000
0000
0000
0000
0000
0000
F000
7800
3C00
1E00
0F00
0780
03C0
01E0
00F0
0078
00F0
01E0
03C0
0780
0F00
1E00
3C00
7800
F000
0000
0000
0000
0000
0000
0000
0000
0000
0000
ENDCHAR
STARTCHAR C003F
ENCODING -1 63
SWIDTH 529 0
DWIDTH 18 0
BBX 14 34 2 -9
BITMAP
0000
0000
0000
0000
0000
0000
0FC0
3FF0
7878
F03C
E01C
E01C
0038
0070
00E0
01C0
0380
0380
0380
0000
0000
0300
0780
0780
0300
0000
0000
0000
0000
0000
0000
0000
0000
0000
ENDCHAR
STARTCHAR C0040
ENCODING -1 64
SWIDTH 588 0
DWIDTH 20 0
BBX 16 34 2 -9
BITMAP
0000
0000
0000
0000
0000
0000
07F0
1FFC
3C0E
7806
7007
E077
E1FF
E3CF
E387
E387
E387
E3CE
E1FC
E070
7000
7807
3C0F
1FFE
07F8
0000
0000
0000
0000
0000
0000
0000
0000
0000
ENDCHAR
STARTCHAR C0041
ENCODING -1 65
SWIDTH 500 0
DWIDTH 17 0
BBX 15 34 1 -9
BITMAP
0000
0000
0000
0000
0000
0000
0380
0380
07C0
07C0
0EE0
0EE0
0EE0
1C70
1C70
1C70
3838
3838
3FF8
7FFC
701C
701C
E00E
E00E
E00E
0000
0000
0000
0000
0000
0000
0000
0000
0000
ENDCHAR
STARTCHAR C0042
ENCODING -1 66
SWIDTH 500 0
DWIDTH 17 0
BBX 14 34 2 -9
BITMAP
0000
0000
0000
0000
0000
0000
FFC0
FFF0
E078
E038
E038
E038
E078
E0F0
FFC0
FFF0
E078
E03C
E01C
E01C
E01C
E03C
E078
FFF0
FFC0
0000
0000
0000
0000
0000
0000
0000
0000
0000
ENDCHAR
STARTCHAR C0043
ENCODING -1 67
SWIDTH 588 0
DWIDTH 20 0
BBX 16 34 2 -9
BITMAP
0000
0000
0000
0000
0000
0000
03E0
0FF8
1E3C
380E
7007
7002
E000
E000
E000
E000
E000
E000
E000
7002
7007
380E
1E3C
0FF8
03E0
0000
0000
0000
0000
0000
0000
0000
0000
0000
ENDCHAR
STARTCHAR C0044
ENCODING -1 68
SWIDTH 559 0
DWIDTH 19 0
BBX 15 34 2 -9
BITMAP
0000
0000
0000
0000
0000
0000
FFC0
FFF0
E078
E03C
E01C
E00E
E00E
E00E
E00E
E00E
E00E
E00E
E00E
E00E
E01C
E03C
E078
FFF0
FFC0
0000
0000
0000
0000
0000
0000
0000
0000
0000
ENDCHAR
STARTCHAR C0045
ENCODING -1 69
SWIDTH 500 0
DWIDTH 17 0
BBX 13 34 2 -9
BITMAP
0000
0000
0000
0000
0000
0000
FFF8
FFF8
E000
E000
E000
E000
E000
E000
FFF0
FFF0
E000
E000
E000
E000
E000
E000
E000
FFF8
FFF8
0000
0000
0000
0000
0000
0000
0000
0000
0000
ENDCHAR
STARTCHAR C0046
ENCODING -1 70
SWIDTH 471 0
DWIDTH 16 0
BBX 13 34 2 -9
BITMAP
0000
0000
0000
0000
0000
0000
FFF8
FFF8
E000
E000
E000
E000
E000
FFF0
FFF0
E000
E000
E000
E000
E000
E000
E000
E000
E000
E000
0000
0000
0000
0000
0000
0000
0000
0000
0000
ENDCHAR
STARTCHAR C0047
ENCODING -1 71
SWIDTH 588 0
DWIDTH 20 0
BBX 16 34 2 -9
BITMAP
0000
0000
0000
0000
0000
0000
03F0
0FFC
1E1E
380F
7007
7002
E000
E000
E000
E1FF
E1FF
E007
E007
7007
700F
381F
1E7F
0FF7
03C7
0000
0000
0000
0000
0000
0000
0000
0000
0000
ENDCHAR
STARTCHAR C0048
ENCODING -1 72
SWIDTH 529 0
DWIDTH 18 0
BBX 14 34 2 -9
BITMAP
0000
0000
0000
0000
0000
0000
E01C
E01C
E01C
E01C
E01C
E01C
E01C
E01C
FFFC
FFFC
E01C
E01C
E01C
E01C
E01C
E01C
E01C
E01C
E01C
0000
0000
0000
0000
0000
0000
0000
0000
0000
ENDCHAR
STARTCHAR C0049
ENCODING -1 73
SWIDTH 265 0
DWIDTH 9 0
BBX 3 34 3 -9
BITMAP
00
00
00
00
00
00
E0
E0
E0
E0
E0
E0
E0
E0
E0
E0
E0
E0
E0
E0
E0
E0
E0
E0
E0
00
00
00
00
00
00
00
00
00
ENDCHAR
STARTCHAR C004A
ENCODING -1 74
SWIDTH 441 0
DWIDTH 15 0
BBX 12 34 1 -9
BITMAP
0000
0000
0000
0000
0000
0000
0070
0070
0070
0070
0070
0070
0070
0070
0070
0070
0070
0070
E070
E070
E070
E070
F0F0
7FE0
3FC0
0000
0000
0000
0000
0000
0000
0000
0000
0000
ENDCHAR
STARTCHAR C004B
ENCODING -1 75
SWIDTH 529 0
DWIDTH 18 0
BBX 15 34 2 -9
BITMAP
0000
0000
0000
0000
0000
0000
E038
E070
E0E0
E1C0
E380
E700
EE00
FC00
FC00
FE00
EF00
E780
E3C0
E1E0
E0F0
E078
E03C
E01E
E00E
0000
0000
0000
0000
0000
0000
0000
0000
0000
ENDCHAR
STARTCHAR C004C
ENCODING -1 76
SWIDTH 441 0
DWIDTH 15 0
BBX 12 34 2 -9
BITMAP
0000
0000
0000
0000
0000
0000
E000
E000
E000
E000
E000
E000
E000
E000
E000
E000
E000
E000
E000
E000
E000
E000
E000
FFF0
FFF0
0000
0000
0000
0000
0000
0000
0000
0000
0000
ENDCHAR
STARTCHAR C004D
ENCODING -1 77
SWIDTH 676 0
DWIDTH 23 0
BBX 19 34 2 -9
BITMAP
000000
000000
000000
000000
000000
000000
F803E0
F803E0
FC07E0
FC07E0
FC07E0
EE0EE0
EE0EE0
EE0EE0
E71CE0
E71CE0
E71CE0
E3B8E0
E3B8E0
E3B8E0
E1B0E0
E1F0E0
E1F0E0
E0E0E0
E0E0E0
000000
000000
000000
000000
000000
000000
000000
000000
000000
ENDCHAR
STARTCHAR C004E
ENCODING -1 78
SWIDTH 529 0
DWIDTH 18 0
BBX 14 34 2 -9
BITMAP
0000
0000
0000
0000
0000
0000
F01C
F01C
F81C
F81C
FC1C
FC1C
EE1C
EE1C
E71C
E71C
E39C
E39C
E1DC
E1DC
E0FC
E0FC
E07C
E03C
E03C
0000
0000
0000
0000
0000
0000
0000
0000
0000
ENDCHAR
STARTCHAR C004F
ENCODING -1 79
SWIDTH 559 0
DWIDTH 19 0
BBX 17 34 1 -9
BITMAP
000000
000000
000000
000000
000000
000000
03E000
0FF800
1E3C00
380E00
700700
700700
E00380
E00380
E00380
E00380
E00380
E00380
E00380
700700
700700
380E00
1E3C00
0FF800
03E000
000000
000000
000000
000000
000000
000000
000000
000000
000000
ENDCHAR
STARTCHAR C0050
ENCODING -1 80
SWIDTH 529 0
DWIDTH 18 0
BBX 14 34 2 -9
BITMAP
0000
0000
0000
0000
0000
0000
FFC0
FFF0
E078
E03C
E01C
E01C
E01C
E01C
E03C
E078
FFF0
FFC0
E000
E000
E000
E000
E000
E000
E000
0000
0000
0000
0000
0000
0000
0000
0000
0000
ENDCHAR
STARTCHAR C0051
ENCODING -1 81
SWIDTH 559 0
DWIDTH 19 0
BBX 18 34 1 -9
BITMAP
000000
000000
000000
000000
000000
000000
03E000
0FF800
1E3C00
380E00
700700
700700
E00380
E00380
E00380
E00380
E00380
E00380
E02380
707380
703F00
381F00
1E0E00
0FFF80
03F1C0
000080
000000
000000
000000
000000
000000
000000
000000
000000
ENDCHAR
STARTCHAR C0052
ENCODING -1 82
SWIDTH 529 0
DWIDTH 18 0
BBX 14 34 2 -9
BITMAP
0000
0000
0000
0000
0000
0000
FFE0
FFF0
E038
E01C
E01C
E01C
E01C
E01C
E038
FFF0
FFE0
E070
E038
E01C
E01C
E01C
E01C
E01C
E01C
0000
0000
0000
0000
0000
0000
0000
0000
0000
ENDCHAR
STARTCHAR C0053
ENCODING -1 83
SWIDTH 559 0
DWIDTH 19 0
BBX 15 34 2 -9
BITMAP
0000
0000
0000
0000
0000
0000
07E0
1FF8
383C
700E
700E
7800
7C00
3F80
0FE0
01F8
007C
001E
E00E
E00E
E00E
701E
783C
3FF8
0FE0
0000
0000
0000
0000
0000
0000
0000
0000
0000
ENDCHAR
STARTCHAR C0054
ENCODING -1 84
SWIDTH 500 0
DWIDTH 17 0
BBX 15 34 1 -9
BITMAP
0000
0000
0000
0000
0000
0000
FFFE
FFFE
0380
0380
0380
0380
0380
0380
0380
0380
0380
0380
0380
0380
0380
0380
0380
0380
0380
0000
0000
0000
0000
0000
0000
0000
0000
0000
ENDCHAR
STARTCHAR C0055
ENCODING -1 85
SWIDTH 529 0
DWIDTH 18 0
BBX 14 34 2 -9
BITMAP
0000
0000
0000
0000
0000
0000
E01C
E01C
E01C
E01C
E01C
E01C
E01C
E01C
E01C
E01C
E01C
E01C
E01C
E01C
E01C
7038
7878
3FF0
0FC0
0000
0000
0000
0000
0000
0000
0000
0000
0000
ENDCHAR
STARTCHAR C0056
ENCODING -1 86
SWIDTH 500 0
DWIDTH 17 0
BBX 15 34 1 -9
BITMAP
0000
0000
0000
0000
0000
0000
E00E
E00E
E00E
E00E
701C
701C
701C
3838
3838
3838
1C70
1C70
1C70
0EE0
0EE0
0EE0
07C0
07C0
0380
0000
0000
0000
0000
0000
0000
0000
0000
0000
ENDCHAR
STARTCHAR C0057
ENCODING -1 87
SWIDTH 794 0
DWIDTH 27 0
BBX 25 34 1 -9
BITMAP
00000000
00000000
00000000
00000000
00000000
00000000
E01C0380
E01C0380
E03E0380
E03E0380
70360700
70770700
70770700
38770E00
38E38E00
38E38E00
38E38E00
1DC1DC00
1DC1DC00
1DC1DC00
0D80D800
0F80F800
0F80F800
07007000
07007000
00000000
00000000
00000000
00000000
00000000
00000000
00000000
00000000
00000000
ENDCHAR
STARTCHAR C0058
ENCODING -1 88
SWIDTH 559 0
DWIDTH 19 0
BBX 17 34 1 -9
BITMAP
000000
000000
000000
000000
000000
000000
700700
380E00
380E00
1C1C00
0E3800
0E3800
077000
03E000
01C000
03E000
07F000
0F7800
0E3800
1C1C00
380E00
380E00
700700
E00380
E00380
000000
000000
000000
000000
000000
000000
000000
000000
000000
ENDCHAR
STARTCHAR C0059
ENCODING -1 89
SWIDTH 500 0
DWIDTH 17 0
BBX 15 34 1 -9
BITMAP
0000
0000
0000
0000
0000
0000
E00E
E00E
701C
701C
3838
1C70
1C70
0EE0
0FE0
07C0
0380
0380
0380
0380
0380
0380
0380
0380
0380
0000
0000
0000
0000
0000
0000
0000
0000
0000
ENDCHAR
STARTCHAR C005A
ENCODING -1 90
SWIDTH 529 0
DWIDTH 18 0
BBX 15 34 1 -9
BITMAP
0000
0000
0000
0000
0000
0000
7FFE
7FFE
001C
0038
0070
0070
00E0
01C0
0380
0380
0700
0E00
1C00
1C00
3800
7000
E000
FFFE
FFFE
0000
0000
0000
0000
0000
0000
0000
0000
0000
ENDCHAR
STARTCHAR C005B
ENCODING -1 91
SWIDTH 382 0
DWIDTH 13 0
BBX 9 34 2 -9
BITMAP
0000
0000
0000
0000
FF80
FF80
E000
E000
E000
E000
E000
E000
E000
E000
E000
E000
E000
E000
E000
E000
E000
E000
E000
E000
E000
E000
E000
E000
E000
FF80
FF80
0000
0000
0000
ENDCHAR
STARTCHAR C005C
ENCODING -1 92
SWIDTH 500 0
DWIDTH 17 0
BBX 13 34 2 -9
BITMAP
0000
0000
0000
0000
E000
E000
7000
7000
7000
3800
3800
1C00
1C00
1C00
0E00
0E00
0700
0700
0700
0380
0380
01C0
01C0
01C0
00E0
00E0
0070
0070
0070
0038
0038
0000
0000
0000
ENDCHAR
STARTCHAR C005D
ENCODING -1 93
SWIDTH 382 0
DWIDTH 13 0
BBX 9 34 2 -9
BITMAP
0000
0000
0000
0000
FF80
FF80
0380
0380
0380
0380
0380
0380
0380
0380
0380
0380
0380
0380
0380
0380
0380
0380
0380
0380
0380
0380
0380
0380
0380
FF80
FF80
0000
0000
0000
ENDCHAR
STARTCHAR C005E
ENCODING -1 94
SWIDTH 382 0
DWIDTH 13 0
BBX 9 34 2 -9
BITMAP
0000
0000
0000
0000
0000
0000
0000
0000
0000
0000
0800
1C00
3E00
7F00
FF80
1C00
1C00
1C00
1C00
1C00
1C00
1C00
1C00
1C00
0000
0000
0000
0000
0000
0000
0000
0000
0000
0000
ENDCHAR
STARTCHAR C005F
ENCODING -1 95
SWIDTH 529 0
DWIDTH 18 0
BBX 14 34 2 -9
BITMAP
0000
0000
0000
0000
0000
0000
0000
0000
0000
0000
0000
0000
0000
0000
0800
1800
3800
7FFC
FFFC
7FFC
3800
1800
0800
0000
0000
0000
0000
0000
0000
0000
0000
0000
0000
0000
ENDCHAR
STARTCHAR C0061
ENCODING -1 97
SWIDTH 500 0
DWIDTH 17 0
BBX 14 34 2 -9
BITMAP
0000
0000
0000
0000
0000
0000
0000
0000
0000
0000
0000
0F80
3FE0
78F0
7070
0070
1F70
7FF0
F0F0
E070
E070
E0F0
F1F0
7FB8
3F3C
0000
0000
0000
0000
0000
0000
0000
0000
0000
ENDCHAR
STARTCHAR C0062
ENCODING -1 98
SWIDTH 500 0
DWIDTH 17 0
BBX 13 34 2 -9
BITMAP
0000
0000
0000
0000
0000
0000
E000
E000
E000
E000
E000
E780
EFE0
F8F0
F070
E038
E038
E038
E038
E038
E038
F070
F8F0
EFE0
E780
0000
0000
0000
0000
0000
0000
0000
0000
0000
ENDCHAR
STARTCHAR C0063
ENCODING -1 99
SWIDTH 500 0
DWIDTH 17 0
BBX 13 34 2 -9
BITMAP
0000
0000
0000
0000
0000
0000
0000
0000
0000
0000
0000
0FC0
3FF0
7878
7038
E038
E000
E000
E000
E000
E038
7038
7878
3FF0
0FC0
0000
0000
0000
0000
0000
0000
0000
0000
0000
ENDCHAR
STARTCHAR C0064
ENCODING -1 100
SWIDTH 500 0
DWIDTH 17 0
BBX 13 34 2 -9
BITMAP
0000
0000
0000
0000
0000
0000
0038
0038
0038
0038
0038
0F38
3FB8
78F8
7078
E038
E038
E038
E038
E038
E038
7078
78F8
3FB8
0F38
0000
0000
0000
0000
0000
0000
0000
0000
0000
ENDCHAR
STARTCHAR C0065
ENCODING -1 101
SWIDTH 529 0
DWIDTH 18 0
BBX 14 34 2 -9
BITMAP
0000
0000
0000
0000
0000
0000
0000
0000
0000
0000
0000
0FC0
3FF0
7878
703C
E01C
E01C
FFFC
FFFC
E000
E000
701C
783C
3FF8
0FE0
0000
0000
0000
0000
0000
0000
0000
0000
0000
ENDCHAR
STARTCHAR C0066
ENCODING -1 102
SWIDTH 353 0
DWIDTH 12 0
BBX 10 34 1 -9
BITMAP
0000
0000
0000
0000
0000
0000
07C0
0FC0
1E00
1C00
1C00
FFC0
FFC0
1C00
1C00
1C00
1C00
1C00
1C00
1C00
1C00
1C00
1C00
1C00
1C00
0000
0000
0000
0000
0000
0000
0000
0000
0000
ENDCHAR
STARTCHAR C0067
ENCODING -1 103
SWIDTH 500 0
DWIDTH 17 0
BBX 13 34 2 -9
BITMAP
0000
0000
0000
0000
0000
0000
0000
0000
0000
0000
0000
0F38
3FB8
78F8
7078
E038
E038
E038
E038
E038
E038
7078
78F8
3FB8
0F38
0038
E038
7070
3FE0
0F80
0000
0000
0000
0000
ENDCHAR
STARTCHAR C0068
ENCODING -1 104
SWIDTH 471 0
DWIDTH 16 0
BBX 12 34 2 -9
BITMAP
0000
0000
0000
0000
0000
0000
E000
E000
E000
E000
E000
E7C0
EFE0
F8F0
F070
E070
E070
E070
E070
E070
E070
E070
E070
E070
E070
0000
0000
0000
0000
0000
0000
0000
0000
0000
ENDCHAR
STARTCHAR C0069
ENCODING -1 105
SWIDTH 206 0
DWIDTH 7 0
BBX 3 34 2 -9
BITMAP
00
00
00
00
00
00
E0
E0
E0
00
00
E0
E0
E0
E0
E0
E0
E0
E0
E0
E0
E0
E0
E0
E0
00
00
00
00
00
00
00
00
00
ENDCHAR
STARTCHAR C006A
ENCODING -1 106
SWIDTH 294 0
DWIDTH 10 0
BBX 7 34 1 -9
BITMAP
00
00
00
00
00
00
0E
0E
0E
00
00
0E
0E
0E
0E
0E
0E
0E
0E
0E
0E
0E
0E
0E
0E
0E
0E
1E
FC
F8
00
00
00
00
ENDCHAR
STARTCHAR C006B
ENCODING -1 107
SWIDTH 471 0
DWIDTH 16 0
BBX 13 34 2 -9
BITMAP
0000
0000
0000
0000
0000
0000
E000
E000
E000
E000
E000
E0F0
E1E0
E3C0
E780
EF00
FE00
FC00
FE00
F700
E780
E3C0
E1E0
E0F0
E078
0000
0000
0000
0000
0000
0000
0000
0000
0000
ENDCHAR
STARTCHAR C006C
ENCODING -1 108
SWIDTH 206 0
DWIDTH 7 0
BBX 3 34 2 -9
BITMAP
00
00
00
00
00
00
E0
E0
E0
E0
E0
E0
E0
E0
E0
E0
E0
E0
E0
E0
E0
E0
E0
E0
E0
00
00
00
00
00
00
00
00
00
ENDCHAR
STARTCHAR C006D
ENCODING -1 109
SWIDTH 618 0
DWIDTH 21 0
BBX 17 34 2 -9
BITMAP
000000
000000
000000
000000
000000
000000
000000
000000
000000
000000
000000
EF9E00
FFFF00
F3E780
E1C380
E1C380
E1C380
E1C380
E1C380
E1C380
E1C380
E1C380
E1C380
E1C380
E1C380
000000
000000
000000
000000
000000
000000
000000
000000
000000
ENDCHAR
STARTCHAR C006E
ENCODING -1 110
SWIDTH 471 0
DWIDTH 16 0
BBX 12 34 2 -9
BITMAP
0000
0000
0000
0000
0000
0000
0000
0000
0000
0000
0000
E7C0
EFE0
F8F0
F070
E070
E070
E070
E070
E070
E070
E070
E070
E070
E070
0000
0000
0000
0000
0000
0000
0000
0000
0000
ENDCHAR
STARTCHAR C006F
ENCODING -1 111
SWIDTH 471 0
DWIDTH 16 0
BBX 14 34 1 -9
BITMAP
0000
0000
0000
0000
0000
0000
0000
0000
0000
0000
0000
0FC0
3FF0
7878
7038
E01C
E01C
E01C
E01C
E01C
E01C
7038
7878
3FF0
0FC0
0000
0000
0000
0000
0000
0000
0000
0000
0000
ENDCHAR
STARTCHAR C0070
ENCODING -1 112
SWIDTH 500 0
DWIDTH 17 0
BBX 13 34 2 -9
BITMAP
0000
0000
0000
0000
0000
0000
0000
0000
0000
0000
0000
E780
EFE0
F8F0
F070
E038
E038
E038
E038
E038
F070
F8F0
EFE0
E780
E000
E000
E000
E000
E000
0000
0000
0000
0000
0000
ENDCHAR
STARTCHAR C0071
ENCODING -1 113
SWIDTH 500 0
DWIDTH 17 0
BBX 13 34 2 -9
BITMAP
0000
0000
0000
0000
0000
0000
0000
0000
0000
0000
0000
0F38
3FB8
78F8
7078
E038
E038
E038
E038
E038
E038
7078
78F8
3FB8
0F38
0038
0038
0038
0038
0038
0000
0000
0000
0000
ENDCHAR
STARTCHAR C0072
ENCODING -1 114
SWIDTH 324 0
DWIDTH 11 0
BBX 8 34 2 -9
BITMAP
00
00
00
00
00
00
00
00
00
00
00
E7
EF
FF
F8
F0
E0
E0
E0
E0
E0
E0
E0
E0
E0
00
00
00
00
00
00
00
00
00
ENDCHAR
STARTCHAR C0073
ENCODING -1 115
SWIDTH 471 0
DWIDTH 16 0
BBX 13 34 1 -9
BITMAP
0000
0000
0000
0000
0000
0000
0000
0000
0000
0000
0000
0FC0
3FF0
7878
7038
7800
3F00
1FE0
03F0
0078
E038
E038
7078
3FF0
1FC0
0000
0000
0000
0000
0000
0000
0000
0000
0000
ENDCHAR
STARTCHAR C0074
ENCODING -1 116
SWIDTH 353 0
DWIDTH 12 0
BBX 10 34 1 -9
BITMAP
0000
0000
0000
0000
0000
0000
0000
1C00
1C00
1C00
1C00
FFC0
FFC0
1C00
1C00
1C00
1C00
1C00
1C00
1C00
1C00
1C00
1E00
0FC0
07C0
0000
0000
0000
0000
0000
0000
0000
0000
0000
ENDCHAR
STARTCHAR C0075
ENCODING -1 117
SWIDTH 471 0
DWIDTH 16 0
BBX 12 34 2 -9
BITMAP
0000
0000
0000
0000
0000
0000
0000
0000
0000
0000
0000
E070
E070
E070
E070
E070
E070
E070
E070
E070
E070
E0F0
F1F0
7F70
3E70
0000
0000
0000
0000
0000
0000
0000
0000
0000
ENDCHAR
STARTCHAR C0076
ENCODING -1 118
SWIDTH 500 0
DWIDTH 17 0
BBX 15 34 1 -9
BITMAP
0000
0000
0000
0000
0000
0000
0000
0000
0000
0000
0000
E00E
E00E
701C
701C
701C
3838
3838
1C70
1C70
1C70
0EE0
0EE0
07C0
07C0
0000
0000
0000
0000
0000
0000
0000
0000
0000
ENDCHAR
STARTCHAR C0077
ENCODING -1 119
SWIDTH 676 0
DWIDTH 23 0
BBX 21 34 1 -9
BITMAP
000000
000000
000000
000000
000000
000000
000000
000000
000000
000000
000000
E07038
E07038
E07038
70F870
70F870
70D870
39DCE0
39DCE0
39DCE0
1D8DC0
1D8DC0
1D8DC0
0F0780
0F0780
000000
000000
000000
000000
000000
000000
000000
000000
000000
ENDCHAR
STARTCHAR C0078
ENCODING -1 120
SWIDTH 559 0
DWIDTH 19 0
BBX 17 34 1 -9
BITMAP
000000
000000
000000
000000
000000
000000
000000
000000
000000
000000
000000
780F00
3C1E00
1E3C00
0F7800
07F000
03E000
01C000
03E000
07F000
0F7800
1E3C00
3C1E00
780F00
F00780
000000
000000
000000
000000
000000
000000
000000
000000
000000
ENDCHAR
STARTCHAR C0079
ENCODING -1 121
SWIDTH 500 0
DWIDTH 17 0
BBX 15 34 1 -9
BITMAP
0000
0000
0000
0000
0000
0000
0000
0000
0000
0000
0000
E00E
E00E
701C
701C
3838
3838
1C70
1C70
0EE0
0EE0
07C0
07C0
0380
0380
0700
0700
0E00
7C00
7800
0000
0000
0000
0000
ENDCHAR
STARTCHAR C007A
ENCODING -1 122
SWIDTH 441 0
DWIDTH 15 0
BBX 13 34 1 -9
BITMAP
0000
0000
0000
0000
0000
0000
0000
0000
0000
0000
0000
7FF8
7FF8
0038
0070
00E0
01C0
0380
0700
0E00
1C00
3800
7000
FFF8
FFF8
0000
0000
0000
0000
0000
0000
0000
0000
0000
ENDCHAR
STARTCHAR C007B
ENCODING -1 123
SWIDTH 471 0
DWIDTH 16 0
BBX 12 34 2 -9
BITMAP
0000
0000
0000
0000
00F0
03F0
0780
0700
0E00
0E00
0E00
0E00
0E00
0E00
0E00
1E00
3C00
F800
F800
3C00
1E00
1E00
0E00
0E00
0E00
0E00
0E00
0E00
0700
0780
03F0
00F0
0000
0000
ENDCHAR
STARTCHAR C007C
ENCODING -1 124
SWIDTH 265 0
DWIDTH 9 0
BBX 3 34 3 -9
BITMAP
00
00
00
00
E0
E0
E0
E0
E0
E0
E0
E0
E0
E0
E0
E0
E0
E0
E0
E0
E0
E0
E0
E0
E0
E0
E0
E0
E0
E0
E0
E0
00
00
ENDCHAR
STARTCHAR C007D
ENCODING -1 125
SWIDTH 471 0
DWIDTH 16 0
BBX 12 34 2 -9
BITMAP
0000
0000
0000
0000
F000
FC00
1E00
0E00
0700
0700
0700
0700
0700
0700
0700
0780
03C0
01F0
01F0
03C0
0780
0700
0700
0700
0700
0700
0700
0700
0E00
1E00
FC00
F000
0000
0000
ENDCHAR
STARTCHAR C007E
ENCODING -1 126
SWIDTH 559 0
DWIDTH 19 0
BBX 17 34 1 -9
BITMAP
000000
000000
000000
000000
000000
000000
000000
000000
000000
000000
000000
000000
000000
000000
1F0100
3F8380
7FC780
F1FF00
E0FE00
407C00
000000
000000
000000
000000
000000
000000
000000
000000
000000
000000
000000
000000
000000
000000
ENDCHAR
ENDFONT
